<svg version="1.1" xmlns="http://www.w3.org/2000/svg" xmlns:xlink="http://www.w3.org/1999/xlink" width="1789.0528564453125" height="220"><defs/><g><g transform="translate(-10,-10) scale(1,1)"><rect fill="#C0C0C0" stroke="none" x="625.2027587890625" y="148" width="105.552734375" height="24" opacity="0.2"/></g><g transform="translate(-10,-10) scale(1,1)"><rect fill="#C0C0C0" stroke="none" x="684.5128173828125" y="115" width="55.24267578125" height="37" opacity="0.2"/></g><g transform="translate(-10,-10) scale(1,1)"><rect fill="#ffffff" stroke="none" x="618.2027587890625" y="141" width="105.552734375" height="24"/></g><g transform="translate(-10,-10) scale(1,1)"><path fill="none" stroke="#000000" d="M 618.2027587890625 141 L 723.7554931640625 141 L 723.7554931640625 165 L 618.2027587890625 165 L 618.2027587890625 141 Z Z" stroke-miterlimit="10"/></g><g transform="translate(-10,-10) scale(1,1)"><g><path fill="none" stroke="none"/><text fill="#000000" stroke="none" font-family="Arial" font-size="13px" font-style="normal" font-weight="bold" text-decoration="none" x="635.2164306640625" y="160.5">BigTwoCard</text></g></g><g transform="translate(-10,-10) scale(1,1)"><rect fill="#ffffff" stroke="none" x="677.5128173828125" y="108" width="55.24267578125" height="37"/></g><g transform="translate(-10,-10) scale(1,1)"><path fill="none" stroke="#000000" d="M 677.5128173828125 108 L 732.7554931640625 108 L 732.7554931640625 145 L 677.5128173828125 145 L 677.5128173828125 108 Z Z" stroke-miterlimit="10" stroke-dasharray="3"/></g><g transform="translate(-10,-10) scale(1,1)"><g><path fill="none" stroke="none"/><text fill="#000000" stroke="none" font-family="Arial" font-size="13px" font-style="normal" font-weight="normal" text-decoration="none" x="682.5128173828125" y="125.5">suit: int</text></g></g><g transform="translate(-10,-10) scale(1,1)"><g><path fill="none" stroke="none"/><text fill="#000000" stroke="none" font-family="Arial" font-size="13px" font-style="normal" font-weight="normal" text-decoration="none" x="682.5128173828125" y="140.5">rank: int</text></g></g><g transform="translate(-10,-10) scale(1,1)"><rect fill="#C0C0C0" stroke="none" x="157.3961181640625" y="43.5" width="61.72998046875" height="24" opacity="0.2"/></g><g transform="translate(-10,-10) scale(1,1)"><rect fill="#ffffff" stroke="none" x="150.3961181640625" y="36.5" width="61.72998046875" height="24"/></g><g transform="translate(-10,-10) scale(1,1)"><path fill="none" stroke="#000000" d="M 150.3961181640625 36.5 L 212.1260986328125 36.5 L 212.1260986328125 60.5 L 150.3961181640625 60.5 L 150.3961181640625 36.5 Z Z" stroke-miterlimit="10"/></g><g transform="translate(-10,-10) scale(1,1)"><g><path fill="none" stroke="none"/><text fill="#000000" stroke="none" font-family="Arial" font-size="13px" font-style="normal" font-weight="bold" text-decoration="none" x="157.0574951171875" y="56">CardList</text></g></g><g transform="translate(-10,-10) scale(1,1)"><rect fill="#C0C0C0" stroke="none" x="50.46728515625" y="131.5" width="40.078125" height="24" opacity="0.2"/></g><g transform="translate(-10,-10) scale(1,1)"><rect fill="#ffffff" stroke="none" x="43.46728515625" y="124.5" width="40.078125" height="24"/></g><g transform="translate(-10,-10) scale(1,1)"><path fill="none" stroke="#000000" d="M 43.46728515625 124.5 L 83.54541015625 124.5 L 83.54541015625 148.5 L 43.46728515625 148.5 L 43.46728515625 124.5 Z Z" stroke-miterlimit="10"/></g><g transform="translate(-10,-10) scale(1,1)"><g><path fill="none" stroke="none"/><text fill="#000000" stroke="none" font-family="Arial" font-size="13px" font-style="normal" font-weight="bold" text-decoration="none" x="48.697265625" y="144">Deck</text></g></g><g transform="translate(-10,-10) scale(1,1)"><path fill="none" stroke="#000000" d="M 63 124 Q 64 93 149 60" stroke-miterlimit="10"/></g><g transform="translate(-10,-10) scale(1,1)"><path fill="#FFFFFF" stroke="none" d="M 133.09949053792388 75.20440064081541 L 149 60 L 127.00550713804745 59.50777673204278"/></g><g transform="translate(-10,-10) scale(1,1)"><path fill="none" stroke="#000000" d="M 133.09949053792388 75.20440064081541 L 149 60 L 127.00550713804745 59.50777673204278 L 133.09949053792388 75.20440064081541" stroke-miterlimit="10"/></g><g transform="translate(-10,-10) scale(1,1)"><rect fill="#C0C0C0" stroke="none" x="27" y="203" width="87.0126953125" height="24" opacity="0.2"/></g><g transform="translate(-10,-10) scale(1,1)"><rect fill="#ffffff" stroke="none" x="20" y="196" width="87.0126953125" height="24"/></g><g transform="translate(-10,-10) scale(1,1)"><path fill="none" stroke="#000000" d="M 20 196 L 107.0126953125 196 L 107.0126953125 220 L 20 220 L 20 196 Z Z" stroke-miterlimit="10"/></g><g transform="translate(-10,-10) scale(1,1)"><g><path fill="none" stroke="none"/><text fill="#000000" stroke="none" font-family="Arial" font-size="13px" font-style="normal" font-weight="bold" text-decoration="none" x="27.023193359375" y="215.5">BigTwoDeck</text></g></g><g transform="translate(-10,-10) scale(1,1)"><path fill="none" stroke="#000000" d="M 63 195 Q 64 181 63 150" stroke-miterlimit="10"/></g><g transform="translate(-10,-10) scale(1,1)"><path fill="#FFFFFF" stroke="none" d="M 72.06997415224058 170.04334225815865 L 63 150 L 55.24065699984915 170.5862234566229"/></g><g transform="translate(-10,-10) scale(1,1)"><path fill="none" stroke="#000000" d="M 72.06997415224058 170.04334225815865 L 63 150 L 55.24065699984915 170.5862234566229 L 72.06997415224058 170.04334225815865" stroke-miterlimit="10"/></g><g transform="translate(-10,-10) scale(1,1)"><rect fill="#C0C0C0" stroke="none" x="293.305908203125" y="148" width="172.05712890625" height="24" opacity="0.2"/></g><g transform="translate(-10,-10) scale(1,1)"><rect fill="#C0C0C0" stroke="none" x="322.305908203125" y="115" width="152.05712890625" height="37" opacity="0.2"/></g><g transform="translate(-10,-10) scale(1,1)"><rect fill="#ffffff" stroke="none" x="286.305908203125" y="141" width="172.05712890625" height="24"/></g><g transform="translate(-10,-10) scale(1,1)"><path fill="none" stroke="#000000" d="M 286.305908203125 141 L 458.363037109375 141 L 458.363037109375 165 L 286.305908203125 165 L 286.305908203125 141 Z Z" stroke-miterlimit="10"/></g><g transform="translate(-10,-10) scale(1,1)"><g><path fill="none" stroke="none"/><text fill="#000000" stroke="none" font-family="Arial" font-size="13px" font-style="italic" font-weight="bold" text-decoration="none" x="356.79541015625" y="160.5">Hand</text></g></g><g transform="translate(-10,-10) scale(1,1)"><rect fill="#ffffff" stroke="none" x="315.305908203125" y="108" width="152.05712890625" height="37"/></g><g transform="translate(-10,-10) scale(1,1)"><path fill="none" stroke="#000000" d="M 315.305908203125 108 L 467.363037109375 108 L 467.363037109375 145 L 315.305908203125 145 L 315.305908203125 108 Z Z" stroke-miterlimit="10" stroke-dasharray="3"/></g><g transform="translate(-10,-10) scale(1,1)"><g><path fill="none" stroke="none"/><text fill="#000000" stroke="none" font-family="Arial" font-size="13px" font-style="normal" font-weight="normal" text-decoration="none" x="320.305908203125" y="125.5">player: CardGamePlayer</text></g></g><g transform="translate(-10,-10) scale(1,1)"><g><path fill="none" stroke="none"/><text fill="#000000" stroke="none" font-family="Arial" font-size="13px" font-style="normal" font-weight="normal" text-decoration="none" x="320.305908203125" y="140.5">cards: CardList</text></g></g><g transform="translate(-10,-10) scale(1,1)"><path fill="none" stroke="#000000" d="M 378 107 Q 378 93 213 55" stroke-miterlimit="10"/></g><g transform="translate(-10,-10) scale(1,1)"><path fill="#FFFFFF" stroke="none" d="M 234.69633158647213 51.357309278863724 L 213 55 L 230.9173945023471 67.76585188098555"/></g><g transform="translate(-10,-10) scale(1,1)"><path fill="none" stroke="#000000" d="M 234.69633158647213 51.357309278863724 L 213 55 L 230.9173945023471 67.76585188098555 L 234.69633158647213 51.357309278863724" stroke-miterlimit="10"/></g><g transform="translate(-10,-10) scale(1,1)"><rect fill="#C0C0C0" stroke="none" x="250.1260986328125" y="52.5" width="133.78076171875" height="24" opacity="0.2"/></g><g transform="translate(-10,-10) scale(1,1)"><rect fill="#C0C0C0" stroke="none" x="310.2042236328125" y="34.5" width="82.70263671875" height="22" opacity="0.2"/></g><g transform="translate(-10,-10) scale(1,1)"><rect fill="#ffffff" stroke="none" x="243.1260986328125" y="45.5" width="133.78076171875" height="24"/></g><g transform="translate(-10,-10) scale(1,1)"><path fill="none" stroke="#000000" d="M 243.1260986328125 45.5 L 376.9068603515625 45.5 L 376.9068603515625 69.5 L 243.1260986328125 69.5 L 243.1260986328125 45.5 Z Z" stroke-miterlimit="10"/></g><g transform="translate(-10,-10) scale(1,1)"><g><path fill="none" stroke="none"/><text fill="#000000" stroke="none" font-family="Arial" font-size="13px" font-style="normal" font-weight="bold" text-decoration="none" x="259.8033447265625" y="65">CardGamePlayer</text></g></g><g transform="translate(-10,-10) scale(1,1)"><rect fill="#ffffff" stroke="none" x="303.2042236328125" y="27.5" width="82.70263671875" height="22"/></g><g transform="translate(-10,-10) scale(1,1)"><path fill="none" stroke="#000000" d="M 303.2042236328125 27.5 L 385.9068603515625 27.5 L 385.9068603515625 49.5 L 303.2042236328125 49.5 L 303.2042236328125 27.5 Z Z" stroke-miterlimit="10" stroke-dasharray="3"/></g><g transform="translate(-10,-10) scale(1,1)"><g><path fill="none" stroke="none"/><text fill="#000000" stroke="none" font-family="Arial" font-size="13px" font-style="normal" font-weight="normal" text-decoration="none" x="308.2042236328125" y="45">name: String</text></g></g><g transform="translate(-10,-10) scale(1,1)"><rect fill="#C0C0C0" stroke="none" x="424.9068603515625" y="43.5" width="107.21728515625" height="24" opacity="0.2"/></g><g transform="translate(-10,-10) scale(1,1)"><rect fill="#ffffff" stroke="none" x="417.9068603515625" y="36.5" width="107.21728515625" height="24"/></g><g transform="translate(-10,-10) scale(1,1)"><path fill="none" stroke="#000000" d="M 417.9068603515625 36.5 L 525.1241455078125 36.5 L 525.1241455078125 60.5 L 417.9068603515625 60.5 L 417.9068603515625 36.5 Z Z" stroke-miterlimit="10"/></g><g transform="translate(-10,-10) scale(1,1)"><g><path fill="none" stroke="none"/><text fill="#000000" stroke="none" font-family="Arial" font-size="13px" font-style="normal" font-weight="bold" text-decoration="none" x="425.9932861328125" y="56">BigTwoConsole</text></g></g><g transform="translate(-10,-10) scale(1,1)"><rect fill="#C0C0C0" stroke="none" x="145.0126953125" y="203" width="48.00634765625" height="24" opacity="0.2"/></g><g transform="translate(-10,-10) scale(1,1)"><rect fill="#ffffff" stroke="none" x="138.0126953125" y="196" width="48.00634765625" height="24"/></g><g transform="translate(-10,-10) scale(1,1)"><path fill="none" stroke="#000000" d="M 138.0126953125 196 L 186.01904296875 196 L 186.01904296875 220 L 138.0126953125 220 L 138.0126953125 196 Z Z" stroke-miterlimit="10"/></g><g transform="translate(-10,-10) scale(1,1)"><g><path fill="none" stroke="none"/><text fill="#000000" stroke="none" font-family="Arial" font-size="13px" font-style="normal" font-weight="bold" text-decoration="none" x="143.947265625" y="215.5">Single</text></g></g><g transform="translate(-10,-10) scale(1,1)"><path fill="none" stroke="#000000" d="M 162 195 Q 163 181 285 155" stroke-miterlimit="10"/></g><g transform="translate(-10,-10) scale(1,1)"><path fill="#FFFFFF" stroke="none" d="M 266.875880608229 167.4706173172314 L 285 155 L 263.36625420444744 151.00237034564086"/></g><g transform="translate(-10,-10) scale(1,1)"><path fill="none" stroke="#000000" d="M 266.875880608229 167.4706173172314 L 285 155 L 263.36625420444744 151.00237034564086 L 266.875880608229 167.4706173172314" stroke-miterlimit="10"/></g><g transform="translate(-10,-10) scale(1,1)"><rect fill="#C0C0C0" stroke="none" x="224.01904296875" y="203" width="33.57177734375" height="24" opacity="0.2"/></g><g transform="translate(-10,-10) scale(1,1)"><rect fill="#ffffff" stroke="none" x="217.01904296875" y="196" width="33.57177734375" height="24"/></g><g transform="translate(-10,-10) scale(1,1)"><path fill="none" stroke="#000000" d="M 217.01904296875 196 L 250.5908203125 196 L 250.5908203125 220 L 217.01904296875 220 L 217.01904296875 196 Z Z" stroke-miterlimit="10"/></g><g transform="translate(-10,-10) scale(1,1)"><g><path fill="none" stroke="none"/><text fill="#000000" stroke="none" font-family="Arial" font-size="13px" font-style="normal" font-weight="bold" text-decoration="none" x="222.245849609375" y="215.5">Pair</text></g></g><g transform="translate(-10,-10) scale(1,1)"><path fill="none" stroke="#000000" d="M 233 195 Q 234 181 285 165" stroke-miterlimit="10"/></g><g transform="translate(-10,-10) scale(1,1)"><path fill="#FFFFFF" stroke="none" d="M 268.12679367790776 179.11718486144125 L 285 165 L 263.08648424249964 163.051198536078"/></g><g transform="translate(-10,-10) scale(1,1)"><path fill="none" stroke="#000000" d="M 268.12679367790776 179.11718486144125 L 285 165 L 263.08648424249964 163.051198536078 L 268.12679367790776 179.11718486144125" stroke-miterlimit="10"/></g><g transform="translate(-10,-10) scale(1,1)"><rect fill="#C0C0C0" stroke="none" x="288.5908203125" y="203" width="40.78271484375" height="24" opacity="0.2"/></g><g transform="translate(-10,-10) scale(1,1)"><rect fill="#ffffff" stroke="none" x="281.5908203125" y="196" width="40.78271484375" height="24"/></g><g transform="translate(-10,-10) scale(1,1)"><path fill="none" stroke="#000000" d="M 281.5908203125 196 L 322.37353515625 196 L 322.37353515625 220 L 281.5908203125 220 L 281.5908203125 196 Z Z" stroke-miterlimit="10"/></g><g transform="translate(-10,-10) scale(1,1)"><g><path fill="none" stroke="none"/><text fill="#000000" stroke="none" font-family="Arial" font-size="13px" font-style="normal" font-weight="bold" text-decoration="none" x="287.173095703125" y="215.5">Tripe</text></g></g><g transform="translate(-10,-10) scale(1,1)"><path fill="none" stroke="#000000" d="M 301 195 Q 302 181 327 166" stroke-miterlimit="10"/></g><g transform="translate(-10,-10) scale(1,1)"><path fill="#FFFFFF" stroke="none" d="M 313.90271444227517 183.67656954896546 L 327 166 L 305.239598370807 169.23804276318523"/></g><g transform="translate(-10,-10) scale(1,1)"><path fill="none" stroke="#000000" d="M 313.90271444227517 183.67656954896546 L 327 166 L 305.239598370807 169.23804276318523 L 313.90271444227517 183.67656954896546" stroke-miterlimit="10"/></g><g transform="translate(-10,-10) scale(1,1)"><rect fill="#C0C0C0" stroke="none" x="360.37353515625" y="203" width="42.2236328125" height="24" opacity="0.2"/></g><g transform="translate(-10,-10) scale(1,1)"><rect fill="#ffffff" stroke="none" x="353.37353515625" y="196" width="42.2236328125" height="24"/></g><g transform="translate(-10,-10) scale(1,1)"><path fill="none" stroke="#000000" d="M 353.37353515625 196 L 395.59716796875 196 L 395.59716796875 220 L 353.37353515625 220 L 353.37353515625 196 Z Z" stroke-miterlimit="10"/></g><g transform="translate(-10,-10) scale(1,1)"><g><path fill="none" stroke="none"/><text fill="#000000" stroke="none" font-family="Arial" font-size="13px" font-style="normal" font-weight="bold" text-decoration="none" x="358.58447265625" y="215.5">Quad</text></g></g><g transform="translate(-10,-10) scale(1,1)"><path fill="none" stroke="#000000" d="M 374 195 Q 375 181 376 166" stroke-miterlimit="10"/></g><g transform="translate(-10,-10) scale(1,1)"><path fill="#FFFFFF" stroke="none" d="M 383.04836652576523 186.8403581859447 L 376 166 L 366.2475891710188 185.72030636229493"/></g><g transform="translate(-10,-10) scale(1,1)"><path fill="none" stroke="#000000" d="M 383.04836652576523 186.8403581859447 L 376 166 L 366.2475891710188 185.72030636229493 L 383.04836652576523 186.8403581859447" stroke-miterlimit="10"/></g><g transform="translate(-10,-10) scale(1,1)"><rect fill="#C0C0C0" stroke="none" x="433.59716796875" y="203" width="58.11181640625" height="24" opacity="0.2"/></g><g transform="translate(-10,-10) scale(1,1)"><rect fill="#ffffff" stroke="none" x="426.59716796875" y="196" width="58.11181640625" height="24"/></g><g transform="translate(-10,-10) scale(1,1)"><path fill="none" stroke="#000000" d="M 426.59716796875 196 L 484.708984375 196 L 484.708984375 220 L 426.59716796875 220 L 426.59716796875 196 Z Z" stroke-miterlimit="10"/></g><g transform="translate(-10,-10) scale(1,1)"><g><path fill="none" stroke="none"/><text fill="#000000" stroke="none" font-family="Arial" font-size="13px" font-style="normal" font-weight="bold" text-decoration="none" x="433.252197265625" y="215.5">Straight</text></g></g><g transform="translate(-10,-10) scale(1,1)"><path fill="none" stroke="#000000" d="M 455 195 Q 456 181 430 166" stroke-miterlimit="10"/></g><g transform="translate(-10,-10) scale(1,1)"><path fill="#FFFFFF" stroke="none" d="M 451.8127060368336 168.86458641878417 L 430 166 L 443.3983438726566 183.44948083669095"/></g><g transform="translate(-10,-10) scale(1,1)"><path fill="none" stroke="#000000" d="M 451.8127060368336 168.86458641878417 L 430 166 L 443.3983438726566 183.44948083669095 L 451.8127060368336 168.86458641878417" stroke-miterlimit="10"/></g><g transform="translate(-10,-10) scale(1,1)"><rect fill="#C0C0C0" stroke="none" x="544.488037109375" y="203" width="43.66455078125" height="24" opacity="0.2"/></g><g transform="translate(-10,-10) scale(1,1)"><rect fill="#ffffff" stroke="none" x="537.488037109375" y="196" width="43.66455078125" height="24"/></g><g transform="translate(-10,-10) scale(1,1)"><path fill="none" stroke="#000000" d="M 537.488037109375 196 L 581.152587890625 196 L 581.152587890625 220 L 537.488037109375 220 L 537.488037109375 196 Z Z" stroke-miterlimit="10"/></g><g transform="translate(-10,-10) scale(1,1)"><g><path fill="none" stroke="none"/><text fill="#000000" stroke="none" font-family="Arial" font-size="13px" font-style="normal" font-weight="bold" text-decoration="none" x="543.42578125" y="215.5">Flush</text></g></g><g transform="translate(-10,-10) scale(1,1)"><path fill="none" stroke="#000000" d="M 559 195 Q 560 181 469 159" stroke-miterlimit="10"/></g><g transform="translate(-10,-10) scale(1,1)"><path fill="#FFFFFF" stroke="none" d="M 490.7345790725561 155.59293784341884 L 469 159 L 486.7778250032822 171.959511493597"/></g><g transform="translate(-10,-10) scale(1,1)"><path fill="none" stroke="#000000" d="M 490.7345790725561 155.59293784341884 L 469 159 L 486.7778250032822 171.959511493597 L 490.7345790725561 155.59293784341884" stroke-miterlimit="10"/></g><g transform="translate(-10,-10) scale(1,1)"><rect fill="#C0C0C0" stroke="none" x="619.152587890625" y="203" width="71.83544921875" height="24" opacity="0.2"/></g><g transform="translate(-10,-10) scale(1,1)"><rect fill="#ffffff" stroke="none" x="612.152587890625" y="196" width="71.83544921875" height="24"/></g><g transform="translate(-10,-10) scale(1,1)"><path fill="none" stroke="#000000" d="M 612.152587890625 196 L 683.988037109375 196 L 683.988037109375 220 L 612.152587890625 220 L 612.152587890625 196 Z Z" stroke-miterlimit="10"/></g><g transform="translate(-10,-10) scale(1,1)"><g><path fill="none" stroke="none"/><text fill="#000000" stroke="none" font-family="Arial" font-size="13px" font-style="normal" font-weight="bold" text-decoration="none" x="618.8076171875" y="215.5">FullHouse</text></g></g><g transform="translate(-10,-10) scale(1,1)"><path fill="none" stroke="#000000" d="M 648 195 Q 649 181 469 151" stroke-miterlimit="10"/></g><g transform="translate(-10,-10) scale(1,1)"><path fill="#FFFFFF" stroke="none" d="M 490.43288237115024 146.03698143621867 L 469 151 L 487.6647205466184 162.64595238340942"/></g><g transform="translate(-10,-10) scale(1,1)"><path fill="none" stroke="#000000" d="M 490.43288237115024 146.03698143621867 L 469 151 L 487.6647205466184 162.64595238340942 L 490.43288237115024 146.03698143621867" stroke-miterlimit="10"/></g><g transform="translate(-10,-10) scale(1,1)"><rect fill="#C0C0C0" stroke="none" x="721.988037109375" y="203" width="92.7763671875" height="24" opacity="0.2"/></g><g transform="translate(-10,-10) scale(1,1)"><rect fill="#ffffff" stroke="none" x="714.988037109375" y="196" width="92.7763671875" height="24"/></g><g transform="translate(-10,-10) scale(1,1)"><path fill="none" stroke="#000000" d="M 714.988037109375 196 L 807.764404296875 196 L 807.764404296875 220 L 714.988037109375 220 L 714.988037109375 196 Z Z" stroke-miterlimit="10"/></g><g transform="translate(-10,-10) scale(1,1)"><g><path fill="none" stroke="none"/><text fill="#000000" stroke="none" font-family="Arial" font-size="13px" font-style="normal" font-weight="bold" text-decoration="none" x="723.080810546875" y="215.5">StraightFlush</text></g></g><g transform="translate(-10,-10) scale(1,1)"><path fill="none" stroke="#000000" d="M 761 195 Q 762 181 469 147" stroke-miterlimit="10"/></g><g transform="translate(-10,-10) scale(1,1)"><path fill="#FFFFFF" stroke="none" d="M 490.16031191153445 140.97993357124915 L 469 147 L 488.2194298396317 157.70577024970527"/></g><g transform="translate(-10,-10) scale(1,1)"><path fill="none" stroke="#000000" d="M 490.16031191153445 140.97993357124915 L 469 147 L 488.2194298396317 157.70577024970527 L 490.16031191153445 140.97993357124915" stroke-miterlimit="10"/></g><g transform="translate(-10,-10) scale(1,1)"><rect fill="#C0C0C0" stroke="none" x="845.764404296875" y="203" width="39.36083984375" height="24" opacity="0.2"/></g><g transform="translate(-10,-10) scale(1,1)"><rect fill="#ffffff" stroke="none" x="838.764404296875" y="196" width="39.36083984375" height="24"/></g><g transform="translate(-10,-10) scale(1,1)"><path fill="none" stroke="#000000" d="M 838.764404296875 196 L 878.125244140625 196 L 878.125244140625 220 L 838.764404296875 220 L 838.764404296875 196 Z Z" stroke-miterlimit="10"/></g><g transform="translate(-10,-10) scale(1,1)"><g><path fill="none" stroke="none"/><text fill="#000000" stroke="none" font-family="Arial" font-size="13px" font-style="normal" font-weight="bold" text-decoration="none" x="843.994384765625" y="215.5">Pass</text></g></g><g transform="translate(-10,-10) scale(1,1)"><path fill="none" stroke="#000000" d="M 858 195 Q 859 181 469 145" stroke-miterlimit="10"/></g><g transform="translate(-10,-10) scale(1,1)"><path fill="#FFFFFF" stroke="none" d="M 490.0131578349717 138.48484859711095 L 469 145 L 488.4654541366916 155.25163866181182"/></g><g transform="translate(-10,-10) scale(1,1)"><path fill="none" stroke="#000000" d="M 490.0131578349717 138.48484859711095 L 469 145 L 488.4654541366916 155.25163866181182 L 490.0131578349717 138.48484859711095" stroke-miterlimit="10"/></g><g transform="translate(-10,-10) scale(1,1)"><rect fill="#C0C0C0" stroke="none" x="640.3577880859375" y="60" width="76" height="24" opacity="0.2"/></g><g transform="translate(-10,-10) scale(1,1)"><rect fill="#C0C0C0" stroke="none" x="670.1151123046875" y="27" width="55.24267578125" height="37" opacity="0.2"/></g><g transform="translate(-10,-10) scale(1,1)"><rect fill="#ffffff" stroke="none" x="633.3577880859375" y="53" width="76" height="24"/></g><g transform="translate(-10,-10) scale(1,1)"><path fill="none" stroke="#000000" d="M 633.3577880859375 53 L 709.3577880859375 53 L 709.3577880859375 77 L 633.3577880859375 77 L 633.3577880859375 53 Z Z" stroke-miterlimit="10"/></g><g transform="translate(-10,-10) scale(1,1)"><g><path fill="none" stroke="none"/><text fill="#000000" stroke="none" font-family="Arial" font-size="13px" font-style="normal" font-weight="bold" text-decoration="none" x="657.2691650390625" y="72.5">Card</text></g></g><g transform="translate(-10,-10) scale(1,1)"><rect fill="#ffffff" stroke="none" x="663.1151123046875" y="20" width="55.24267578125" height="37"/></g><g transform="translate(-10,-10) scale(1,1)"><path fill="none" stroke="#000000" d="M 663.1151123046875 20 L 718.3577880859375 20 L 718.3577880859375 57 L 663.1151123046875 57 L 663.1151123046875 20 Z Z" stroke-miterlimit="10" stroke-dasharray="3"/></g><g transform="translate(-10,-10) scale(1,1)"><g><path fill="none" stroke="none"/><text fill="#000000" stroke="none" font-family="Arial" font-size="13px" font-style="normal" font-weight="normal" text-decoration="none" x="668.1151123046875" y="37.5">suit: int</text></g></g><g transform="translate(-10,-10) scale(1,1)"><g><path fill="none" stroke="none"/><text fill="#000000" stroke="none" font-family="Arial" font-size="13px" font-style="normal" font-weight="normal" text-decoration="none" x="668.1151123046875" y="52.5">rank: int</text></g></g><g transform="translate(-10,-10) scale(1,1)"><path fill="none" stroke="#000000" d="M 676 107 Q 676 93 676 78" stroke-miterlimit="10"/></g><g transform="translate(-10,-10) scale(1,1)"><path fill="#FFFFFF" stroke="none" d="M 684.419035512032 98.32534971524831 L 676 78 L 667.580964487968 98.32534971524831"/></g><g transform="translate(-10,-10) scale(1,1)"><path fill="none" stroke="#000000" d="M 684.419035512032 98.32534971524831 L 676 78 L 667.580964487968 98.32534971524831 L 684.419035512032 98.32534971524831" stroke-miterlimit="10"/></g><g transform="translate(-10,-10) scale(1,1)"><rect fill="#C0C0C0" stroke="none" x="974.8494873046875" y="140.5" width="132.32080078125" height="24" opacity="0.2"/></g><g transform="translate(-10,-10) scale(1,1)"><rect fill="#C0C0C0" stroke="none" x="1003.8494873046875" y="122.5" width="112.32080078125" height="22" opacity="0.2"/></g><g transform="translate(-10,-10) scale(1,1)"><rect fill="#ffffff" stroke="none" x="967.8494873046875" y="133.5" width="132.32080078125" height="24"/></g><g transform="translate(-10,-10) scale(1,1)"><path fill="none" stroke="#000000" d="M 967.8494873046875 133.5 L 1100.1702880859375 133.5 L 1100.1702880859375 157.5 L 967.8494873046875 157.5 L 967.8494873046875 133.5 Z Z" stroke-miterlimit="10"/></g><g transform="translate(-10,-10) scale(1,1)"><g><path fill="none" stroke="none"/><text fill="#000000" stroke="none" font-family="Arial" font-size="13px" font-style="normal" font-weight="bold" text-decoration="none" x="996.0762939453125" y="153">BigTwoTable</text></g></g><g transform="translate(-10,-10) scale(1,1)"><rect fill="#ffffff" stroke="none" x="996.8494873046875" y="115.5" width="112.32080078125" height="22"/></g><g transform="translate(-10,-10) scale(1,1)"><path fill="none" stroke="#000000" d="M 996.8494873046875 115.5 L 1109.1702880859375 115.5 L 1109.1702880859375 137.5 L 996.8494873046875 137.5 L 996.8494873046875 115.5 Z Z" stroke-miterlimit="10" stroke-dasharray="3"/></g><g transform="translate(-10,-10) scale(1,1)"><g><path fill="none" stroke="none"/><text fill="#000000" stroke="none" font-family="Arial" font-size="13px" font-style="normal" font-weight="normal" text-decoration="none" x="1001.8494873046875" y="133">game: CardGame</text></g></g><g transform="translate(-10,-10) scale(1,1)"><rect fill="#C0C0C0" stroke="none" x="918.5994873046875" y="203" width="128.18359375" height="24" opacity="0.2"/></g><g transform="translate(-10,-10) scale(1,1)"><rect fill="#ffffff" stroke="none" x="911.5994873046875" y="196" width="128.18359375" height="24"/></g><g transform="translate(-10,-10) scale(1,1)"><path fill="none" stroke="#000000" d="M 911.5994873046875 196 L 1039.7830810546875 196 L 1039.7830810546875 220 L 911.5994873046875 220 L 911.5994873046875 196 Z Z" stroke-miterlimit="10"/></g><g transform="translate(-10,-10) scale(1,1)"><g><path fill="none" stroke="none"/><text fill="#000000" stroke="none" font-family="Arial" font-size="13px" font-style="normal" font-weight="bold" text-decoration="none" x="921.1300048828125" y="215.5">PlayButtonListener</text></g></g><g transform="translate(-10,-10) scale(1,1)"><path fill="none" stroke="#000000" d="M 975 195 Q 974 181 1007 159" stroke-miterlimit="10"/></g><g transform="translate(-10,-10) scale(1,1)"><path fill="#000000" stroke="none" d="M 1000.8791637187297 168.1397682256108 L 1007 159 L 996.2091230681783 161.13470724978384 L 988.6948935245674 171.20340431695504"/></g><g transform="translate(-10,-10) scale(1,1)"><path fill="none" stroke="#000000" d="M 1000.8791637187297 168.1397682256108 L 1007 159 L 996.2091230681783 161.13470724978384 L 988.6948935245674 171.20340431695504 L 1000.8791637187297 168.1397682256108" stroke-miterlimit="10"/></g><g transform="translate(-10,-10) scale(1,1)"><rect fill="#C0C0C0" stroke="none" x="1077.7830810546875" y="203" width="131.8017578125" height="24" opacity="0.2"/></g><g transform="translate(-10,-10) scale(1,1)"><rect fill="#ffffff" stroke="none" x="1070.7830810546875" y="196" width="131.8017578125" height="24"/></g><g transform="translate(-10,-10) scale(1,1)"><path fill="none" stroke="#000000" d="M 1070.7830810546875 196 L 1202.5848388671875 196 L 1202.5848388671875 220 L 1070.7830810546875 220 L 1070.7830810546875 196 Z Z" stroke-miterlimit="10"/></g><g transform="translate(-10,-10) scale(1,1)"><g><path fill="none" stroke="none"/><text fill="#000000" stroke="none" font-family="Arial" font-size="13px" font-style="normal" font-weight="bold" text-decoration="none" x="1080.3167724609375" y="215.5">PassButtonListener</text></g></g><g transform="translate(-10,-10) scale(1,1)"><path fill="none" stroke="#000000" d="M 1110 195 Q 1083 181 1061 159" stroke-miterlimit="10"/></g><g transform="translate(-10,-10) scale(1,1)"><path fill="#000000" stroke="none" d="M 1071.162674857624 163.209517756016 L 1061 159 L 1065.2095177560159 169.16267485762415 L 1076.556349186104 174.55634918610406"/></g><g transform="translate(-10,-10) scale(1,1)"><path fill="none" stroke="#000000" d="M 1071.162674857624 163.209517756016 L 1061 159 L 1065.2095177560159 169.16267485762415 L 1076.556349186104 174.55634918610406 L 1071.162674857624 163.209517756016" stroke-miterlimit="10"/></g><g transform="translate(-10,-10) scale(1,1)"><rect fill="#C0C0C0" stroke="none" x="1240.5848388671875" y="203" width="165.0380859375" height="24" opacity="0.2"/></g><g transform="translate(-10,-10) scale(1,1)"><rect fill="#ffffff" stroke="none" x="1233.5848388671875" y="196" width="165.0380859375" height="24"/></g><g transform="translate(-10,-10) scale(1,1)"><path fill="none" stroke="#000000" d="M 1233.5848388671875 196 L 1398.6229248046875 196 L 1398.6229248046875 220 L 1233.5848388671875 220 L 1233.5848388671875 196 Z Z" stroke-miterlimit="10"/></g><g transform="translate(-10,-10) scale(1,1)"><g><path fill="none" stroke="none"/><text fill="#000000" stroke="none" font-family="Arial" font-size="13px" font-style="normal" font-weight="bold" text-decoration="none" x="1243.1280517578125" y="215.5">RestartMenuItemListener</text></g></g><g transform="translate(-10,-10) scale(1,1)"><path fill="none" stroke="#000000" d="M 1254 195 Q 1188 181 1111 158" stroke-miterlimit="10"/></g><g transform="translate(-10,-10) scale(1,1)"><path fill="#000000" stroke="none" d="M 1121.9423402551868 156.87519346564866 L 1111 158 L 1119.5327613244558 164.94204466853031 L 1132.0796980497073 164.2965331836788"/></g><g transform="translate(-10,-10) scale(1,1)"><path fill="none" stroke="#000000" d="M 1121.9423402551868 156.87519346564866 L 1111 158 L 1119.5327613244558 164.94204466853031 L 1132.0796980497073 164.2965331836788 L 1121.9423402551868 156.87519346564866" stroke-miterlimit="10"/></g><g transform="translate(-10,-10) scale(1,1)"><rect fill="#C0C0C0" stroke="none" x="1436.6229248046875" y="203" width="146.236328125" height="24" opacity="0.2"/></g><g transform="translate(-10,-10) scale(1,1)"><rect fill="#ffffff" stroke="none" x="1429.6229248046875" y="196" width="146.236328125" height="24"/></g><g transform="translate(-10,-10) scale(1,1)"><path fill="none" stroke="#000000" d="M 1429.6229248046875 196 L 1575.8592529296875 196 L 1575.8592529296875 220 L 1429.6229248046875 220 L 1429.6229248046875 196 Z Z" stroke-miterlimit="10"/></g><g transform="translate(-10,-10) scale(1,1)"><g><path fill="none" stroke="none"/><text fill="#000000" stroke="none" font-family="Arial" font-size="13px" font-style="normal" font-weight="bold" text-decoration="none" x="1438.7947998046875" y="215.5">QuitMenuItemListener</text></g></g><g transform="translate(-10,-10) scale(1,1)"><path fill="none" stroke="#000000" d="M 1429 198 Q 1296 181 1111 149" stroke-miterlimit="10"/></g><g transform="translate(-10,-10) scale(1,1)"><path fill="#000000" stroke="none" d="M 1121.7314502389902 146.58422356827552 L 1111 149 L 1120.296493132659 154.880069339253 L 1132.678089693371 152.74972362263713"/></g><g transform="translate(-10,-10) scale(1,1)"><path fill="none" stroke="#000000" d="M 1121.7314502389902 146.58422356827552 L 1111 149 L 1120.296493132659 154.880069339253 L 1132.678089693371 152.74972362263713 L 1121.7314502389902 146.58422356827552" stroke-miterlimit="10"/></g><g transform="translate(-10,-10) scale(1,1)"><rect fill="#C0C0C0" stroke="none" x="756.6004638671875" y="43.5" width="50.91357421875" height="24" opacity="0.2"/></g><g transform="translate(-10,-10) scale(1,1)"><rect fill="#ffffff" stroke="none" x="749.6004638671875" y="36.5" width="50.91357421875" height="24"/></g><g transform="translate(-10,-10) scale(1,1)"><path fill="none" stroke="#000000" d="M 749.6004638671875 36.5 L 800.5140380859375 36.5 L 800.5140380859375 60.5 L 749.6004638671875 60.5 L 749.6004638671875 36.5 Z Z" stroke-miterlimit="10"/></g><g transform="translate(-10,-10) scale(1,1)"><g><path fill="none" stroke="none"/><text fill="#000000" stroke="none" font-family="Arial" font-size="13px" font-style="normal" font-weight="bold" text-decoration="none" x="755.1827392578125" y="56">JPanel</text></g></g><g transform="translate(-10,-10) scale(1,1)"><path fill="#C0C0C0" stroke="none" d="M 1034.5098876953125 43 C 1034.5098876953125 36.6487248 1039.6586124953126 31.5 1046.0098876953125 31.5 C 1052.3611628953124 31.5 1057.5098876953125 36.6487248 1057.5098876953125 43 C 1057.5098876953125 49.3512752 1052.3611628953124 54.5 1046.0098876953125 54.5 C 1039.6586124953126 54.5 1034.5098876953125 49.3512752 1034.5098876953125 43 Z" opacity="0.2"/></g><g transform="translate(-10,-10) scale(1,1)"><path fill="#ffffff" stroke="none" d="M 1027.5098876953125 36 C 1027.5098876953125 29.6487248 1032.6586124953126 24.5 1039.0098876953125 24.5 C 1045.3611628953124 24.5 1050.5098876953125 29.6487248 1050.5098876953125 36 C 1050.5098876953125 42.3512752 1045.3611628953124 47.5 1039.0098876953125 47.5 C 1032.6586124953126 47.5 1027.5098876953125 42.3512752 1027.5098876953125 36 Z"/></g><g transform="translate(-10,-10) scale(1,1)"><path fill="none" stroke="#000000" d="M 1027.5098876953125 36 C 1027.5098876953125 29.6487248 1032.6586124953126 24.5 1039.0098876953125 24.5 C 1045.3611628953124 24.5 1050.5098876953125 29.6487248 1050.5098876953125 36 C 1050.5098876953125 42.3512752 1045.3611628953124 47.5 1039.0098876953125 47.5 C 1032.6586124953126 47.5 1027.5098876953125 42.3512752 1027.5098876953125 36 Z" stroke-miterlimit="10"/></g><g transform="translate(-10,-10) scale(1,1)"><g><path fill="none" stroke="none"/><text fill="#000000" stroke="none" font-family="Arial" font-size="13px" font-style="normal" font-weight="bold" text-decoration="none" x="990.9613037109375" y="67">CardGameTable</text></g></g><g transform="translate(-10,-10) scale(1,1)"><path fill="none" stroke="#000000" d="M 1040 115 Q 1040 93 1039.3026315789473 47.5" stroke-miterlimit="10"/></g><g transform="translate(-10,-10) scale(1,1)"><path fill="#C0C0C0" stroke="none" d="M 1615.4356689453125 43 C 1615.4356689453125 36.6487248 1620.5843937453126 31.5 1626.9356689453125 31.5 C 1633.2869441453124 31.5 1638.4356689453125 36.6487248 1638.4356689453125 43 C 1638.4356689453125 49.3512752 1633.2869441453124 54.5 1626.9356689453125 54.5 C 1620.5843937453126 54.5 1615.4356689453125 49.3512752 1615.4356689453125 43 Z" opacity="0.2"/></g><g transform="translate(-10,-10) scale(1,1)"><path fill="#ffffff" stroke="none" d="M 1608.4356689453125 36 C 1608.4356689453125 29.6487248 1613.5843937453126 24.5 1619.9356689453125 24.5 C 1626.2869441453124 24.5 1631.4356689453125 29.6487248 1631.4356689453125 36 C 1631.4356689453125 42.3512752 1626.2869441453124 47.5 1619.9356689453125 47.5 C 1613.5843937453126 47.5 1608.4356689453125 42.3512752 1608.4356689453125 36 Z"/></g><g transform="translate(-10,-10) scale(1,1)"><path fill="none" stroke="#000000" d="M 1608.4356689453125 36 C 1608.4356689453125 29.6487248 1613.5843937453126 24.5 1619.9356689453125 24.5 C 1626.2869441453124 24.5 1631.4356689453125 29.6487248 1631.4356689453125 36 C 1631.4356689453125 42.3512752 1626.2869441453124 47.5 1619.9356689453125 47.5 C 1613.5843937453126 47.5 1608.4356689453125 42.3512752 1608.4356689453125 36 Z" stroke-miterlimit="10"/></g><g transform="translate(-10,-10) scale(1,1)"><g><path fill="none" stroke="none"/><text fill="#000000" stroke="none" font-family="Arial" font-size="13px" font-style="normal" font-weight="bold" text-decoration="none" x="1588.1466064453125" y="67">CardGame</text></g></g><g transform="translate(-10,-10) scale(1,1)"><path fill="#C0C0C0" stroke="none" d="M 1734.1815185546875 43 C 1734.1815185546875 36.6487248 1739.3302433546876 31.5 1745.6815185546875 31.5 C 1752.0327937546874 31.5 1757.1815185546875 36.6487248 1757.1815185546875 43 C 1757.1815185546875 49.3512752 1752.0327937546874 54.5 1745.6815185546875 54.5 C 1739.3302433546876 54.5 1734.1815185546875 49.3512752 1734.1815185546875 43 Z" opacity="0.2"/></g><g transform="translate(-10,-10) scale(1,1)"><path fill="#ffffff" stroke="none" d="M 1727.1815185546875 36 C 1727.1815185546875 29.6487248 1732.3302433546876 24.5 1738.6815185546875 24.5 C 1745.0327937546874 24.5 1750.1815185546875 29.6487248 1750.1815185546875 36 C 1750.1815185546875 42.3512752 1745.0327937546874 47.5 1738.6815185546875 47.5 C 1732.3302433546876 47.5 1727.1815185546875 42.3512752 1727.1815185546875 36 Z"/></g><g transform="translate(-10,-10) scale(1,1)"><path fill="none" stroke="#000000" d="M 1727.1815185546875 36 C 1727.1815185546875 29.6487248 1732.3302433546876 24.5 1738.6815185546875 24.5 C 1745.0327937546874 24.5 1750.1815185546875 29.6487248 1750.1815185546875 36 C 1750.1815185546875 42.3512752 1745.0327937546874 47.5 1738.6815185546875 47.5 C 1732.3302433546876 47.5 1727.1815185546875 42.3512752 1727.1815185546875 36 Z" stroke-miterlimit="10"/></g><g transform="translate(-10,-10) scale(1,1)"><g><path fill="none" stroke="none"/><text fill="#000000" stroke="none" font-family="Arial" font-size="13px" font-style="normal" font-weight="bold" text-decoration="none" x="1696.0474853515625" y="67">MouseListener</text></g></g><g transform="translate(-10,-10) scale(1,1)"><path fill="#C0C0C0" stroke="none" d="M 1506.4620361328125 131 C 1506.4620361328125 124.6487248 1511.6107609328126 119.5 1517.9620361328125 119.5 C 1524.3133113328124 119.5 1529.4620361328125 124.6487248 1529.4620361328125 131 C 1529.4620361328125 137.3512752 1524.3133113328124 142.5 1517.9620361328125 142.5 C 1511.6107609328126 142.5 1506.4620361328125 137.3512752 1506.4620361328125 131 Z" opacity="0.2"/></g><g transform="translate(-10,-10) scale(1,1)"><path fill="#ffffff" stroke="none" d="M 1499.4620361328125 124 C 1499.4620361328125 117.6487248 1504.6107609328126 112.5 1510.9620361328125 112.5 C 1517.3133113328124 112.5 1522.4620361328125 117.6487248 1522.4620361328125 124 C 1522.4620361328125 130.3512752 1517.3133113328124 135.5 1510.9620361328125 135.5 C 1504.6107609328126 135.5 1499.4620361328125 130.3512752 1499.4620361328125 124 Z"/></g><g transform="translate(-10,-10) scale(1,1)"><path fill="none" stroke="#000000" d="M 1499.4620361328125 124 C 1499.4620361328125 117.6487248 1504.6107609328126 112.5 1510.9620361328125 112.5 C 1517.3133113328124 112.5 1522.4620361328125 117.6487248 1522.4620361328125 124 C 1522.4620361328125 130.3512752 1517.3133113328124 135.5 1510.9620361328125 135.5 C 1504.6107609328126 135.5 1499.4620361328125 130.3512752 1499.4620361328125 124 Z" stroke-miterlimit="10"/></g><g transform="translate(-10,-10) scale(1,1)"><g><path fill="none" stroke="none"/><text fill="#000000" stroke="none" font-family="Arial" font-size="13px" font-style="normal" font-weight="bold" text-decoration="none" x="1469.7720947265625" y="155">ActionListener</text></g></g><g transform="translate(-10,-10) scale(1,1)"><path fill="none" stroke="#000000" d="M 1041 203 Q 1326 181 1499.4620361328125 129.05822265625" stroke-miterlimit="10"/></g><g transform="translate(-10,-10) scale(1,1)"><path fill="none" stroke="#000000" d="M 1204 202 Q 1422 181 1499.4620361328125 132.0088525390625" stroke-miterlimit="10"/></g><g transform="translate(-10,-10) scale(1,1)"><path fill="none" stroke="#000000" d="M 1400 197 Q 1526 181 1512.7236842105262 135.5" stroke-miterlimit="10"/></g><g transform="translate(-10,-10) scale(1,1)"><path fill="none" stroke="#000000" d="M 1559 195 Q 1621 181 1522.4620361328125 131.90859985351562" stroke-miterlimit="10"/></g><g transform="translate(-10,-10) scale(1,1)"><rect fill="#C0C0C0" stroke="none" x="1598.9683837890625" y="131.5" width="55.9345703125" height="24" opacity="0.2"/></g><g transform="translate(-10,-10) scale(1,1)"><rect fill="#ffffff" stroke="none" x="1591.9683837890625" y="124.5" width="55.9345703125" height="24"/></g><g transform="translate(-10,-10) scale(1,1)"><path fill="none" stroke="#000000" d="M 1591.9683837890625 124.5 L 1647.9029541015625 124.5 L 1647.9029541015625 148.5 L 1591.9683837890625 148.5 L 1591.9683837890625 124.5 Z Z" stroke-miterlimit="10"/></g><g transform="translate(-10,-10) scale(1,1)"><g><path fill="none" stroke="none"/><text fill="#000000" stroke="none" font-family="Arial" font-size="13px" font-style="normal" font-weight="bold" text-decoration="none" x="1598.2615966796875" y="144">BigTwo</text></g></g><g transform="translate(-10,-10) scale(1,1)"><path fill="none" stroke="#000000" d="M 1619 124 Q 1620 93 1619.3026315789473 47.5" stroke-miterlimit="10"/></g></g></svg>