<svg version="1.1" xmlns="http://www.w3.org/2000/svg" xmlns:xlink="http://www.w3.org/1999/xlink" width="796" height="580"><defs/><g><g transform="translate(-870,-126) scale(1,1)"><rect fill="#C0C0C0" stroke="none" x="897" y="143" width="766" height="560" opacity="0.2"/></g><g transform="translate(-870,-126) scale(1,1)"><rect fill="#ffffff" stroke="none" x="890" y="136" width="766" height="560"/></g><g transform="translate(-870,-126) scale(1,1)"><path fill="none" stroke="#000000" d="M 890 136 L 1656 136 L 1656 696 L 890 696 L 890 136 Z Z" stroke-miterlimit="10"/></g><g transform="translate(-870,-126) scale(1,1)"><rect fill="#ffffff" stroke="none" x="880" y="143" width="20" height="10"/></g><g transform="translate(-870,-126) scale(1,1)"><path fill="none" stroke="#000000" d="M 880 143 L 900 143 L 900 153 L 880 153 L 880 143 Z Z" stroke-miterlimit="10"/></g><g transform="translate(-870,-126) scale(1,1)"><rect fill="#ffffff" stroke="none" x="880" y="163" width="20" height="10"/></g><g transform="translate(-870,-126) scale(1,1)"><path fill="none" stroke="#000000" d="M 880 163 L 900 163 L 900 173 L 880 173 L 880 163 Z Z" stroke-miterlimit="10"/></g><g transform="translate(-870,-126) scale(1,1)"><g><path fill="none" stroke="none"/><text fill="#000000" stroke="none" font-family="Arial" font-size="13px" font-style="normal" font-weight="bold" text-decoration="none" x="1261.385009765625" y="155.5">frame</text></g></g><g transform="translate(-870,-126) scale(1,1)"><rect fill="#C0C0C0" stroke="none" x="895" y="199" width="766" height="504" opacity="0.2"/></g><g transform="translate(-870,-126) scale(1,1)"><rect fill="#ffffff" stroke="none" x="888" y="192" width="766" height="504"/></g><g transform="translate(-870,-126) scale(1,1)"><path fill="none" stroke="#000000" d="M 888 192 L 1654 192 L 1654 696 L 888 696 L 888 192 Z Z" stroke-miterlimit="10"/></g><g transform="translate(-870,-126) scale(1,1)"><rect fill="#ffffff" stroke="none" x="888" y="192" width="766" height="504"/></g><g transform="translate(-870,-126) scale(1,1)"><path fill="none" stroke="#000000" d="M 888 192 L 1654 192 L 1654 696 L 888 696 L 888 192 Z Z" stroke-miterlimit="10"/></g><g transform="translate(-870,-126) scale(1,1)"><g><path fill="none" stroke="none"/><text fill="#000000" stroke="none" font-family="Arial" font-size="13px" font-style="normal" font-weight="bold" text-decoration="none" x="1209.5673828125" y="211.5">contentPanel: JPanel</text></g></g><g transform="translate(-870,-126) scale(1,1)"><rect fill="#C0C0C0" stroke="none" x="895" y="223" width="472" height="456" opacity="0.2"/></g><g transform="translate(-870,-126) scale(1,1)"><rect fill="#ffffff" stroke="none" x="888" y="216" width="472" height="456"/></g><g transform="translate(-870,-126) scale(1,1)"><path fill="none" stroke="#000000" d="M 888 216 L 1360 216 L 1360 672 L 888 672 L 888 216 Z Z" stroke-miterlimit="10"/></g><g transform="translate(-870,-126) scale(1,1)"><rect fill="#ffffff" stroke="none" x="888" y="216" width="472" height="456"/></g><g transform="translate(-870,-126) scale(1,1)"><path fill="none" stroke="#000000" d="M 888 216 L 1360 216 L 1360 672 L 888 672 L 888 216 Z Z" stroke-miterlimit="10"/></g><g transform="translate(-870,-126) scale(1,1)"><g><path fill="none" stroke="none"/><text fill="#000000" stroke="none" font-family="Arial" font-size="13px" font-style="normal" font-weight="bold" text-decoration="none" x="1044.511474609375" y="235.5">bigTwoPanel: BigTwoPanel</text></g></g><g transform="translate(-870,-126) scale(1,1)"><rect fill="#C0C0C0" stroke="none" x="1367" y="223" width="296" height="480" opacity="0.2"/></g><g transform="translate(-870,-126) scale(1,1)"><rect fill="#ffffff" stroke="none" x="1360" y="216" width="296" height="480"/></g><g transform="translate(-870,-126) scale(1,1)"><path fill="none" stroke="#000000" d="M 1360 216 L 1656 216 L 1656 696 L 1360 696 L 1360 216 Z Z" stroke-miterlimit="10"/></g><g transform="translate(-870,-126) scale(1,1)"><rect fill="#ffffff" stroke="none" x="1360" y="216" width="296" height="480"/></g><g transform="translate(-870,-126) scale(1,1)"><path fill="none" stroke="#000000" d="M 1360 216 L 1656 216 L 1656 696 L 1360 696 L 1360 216 Z Z" stroke-miterlimit="10"/></g><g transform="translate(-870,-126) scale(1,1)"><g><path fill="none" stroke="none"/><text fill="#000000" stroke="none" font-family="Arial" font-size="13px" font-style="normal" font-weight="bold" text-decoration="none" x="1455.609619140625" y="235.5">msgPanel: JPanel</text></g></g><g transform="translate(-870,-126) scale(1,1)"><rect fill="#C0C0C0" stroke="none" x="895" y="679" width="472" height="24" opacity="0.2"/></g><g transform="translate(-870,-126) scale(1,1)"><rect fill="#ffffff" stroke="none" x="888" y="672" width="472" height="24"/></g><g transform="translate(-870,-126) scale(1,1)"><path fill="none" stroke="#000000" d="M 888 672 L 1360 672 L 1360 696 L 888 696 L 888 672 Z Z" stroke-miterlimit="10"/></g><g transform="translate(-870,-126) scale(1,1)"><rect fill="#ffffff" stroke="none" x="888" y="672" width="472" height="24"/></g><g transform="translate(-870,-126) scale(1,1)"><path fill="none" stroke="#000000" d="M 888 672 L 1360 672 L 1360 696 L 888 696 L 888 672 Z Z" stroke-miterlimit="10"/></g><g transform="translate(-870,-126) scale(1,1)"><g><path fill="none" stroke="none"/><text fill="#000000" stroke="none" font-family="Arial" font-size="13px" font-style="normal" font-weight="bold" text-decoration="none" x="1050.275146484375" y="691.5">buttonPanel: ButtonPanel</text></g></g><g transform="translate(-870,-126) scale(1,1)"><rect fill="#C0C0C0" stroke="none" x="895" y="255" width="472" height="80" opacity="0.2"/></g><g transform="translate(-870,-126) scale(1,1)"><rect fill="#ffffff" stroke="none" x="888" y="248" width="472" height="80"/></g><g transform="translate(-870,-126) scale(1,1)"><path fill="none" stroke="#000000" d="M 888 248 L 1360 248 L 1360 328 L 888 328 L 888 248 Z Z" stroke-miterlimit="10"/></g><g transform="translate(-870,-126) scale(1,1)"><rect fill="#ffffff" stroke="none" x="888" y="248" width="472" height="80"/></g><g transform="translate(-870,-126) scale(1,1)"><path fill="none" stroke="#000000" d="M 888 248 L 1360 248 L 1360 328 L 888 328 L 888 248 Z Z" stroke-miterlimit="10"/></g><g transform="translate(-870,-126) scale(1,1)"><g><path fill="none" stroke="none"/><text fill="#000000" stroke="none" font-family="Arial" font-size="13px" font-style="normal" font-weight="bold" text-decoration="none" x="1044.5146484375" y="267.5">playerTable[3]: PlayerTable</text></g></g><g transform="translate(-870,-126) scale(1,1)"><rect fill="#C0C0C0" stroke="none" x="895" y="335" width="472" height="80" opacity="0.2"/></g><g transform="translate(-870,-126) scale(1,1)"><rect fill="#ffffff" stroke="none" x="888" y="328" width="472" height="80"/></g><g transform="translate(-870,-126) scale(1,1)"><path fill="none" stroke="#000000" d="M 888 328 L 1360 328 L 1360 408 L 888 408 L 888 328 Z Z" stroke-miterlimit="10"/></g><g transform="translate(-870,-126) scale(1,1)"><rect fill="#ffffff" stroke="none" x="888" y="328" width="472" height="80"/></g><g transform="translate(-870,-126) scale(1,1)"><path fill="none" stroke="#000000" d="M 888 328 L 1360 328 L 1360 408 L 888 408 L 888 328 Z Z" stroke-miterlimit="10"/></g><g transform="translate(-870,-126) scale(1,1)"><g><path fill="none" stroke="none"/><text fill="#000000" stroke="none" font-family="Arial" font-size="13px" font-style="normal" font-weight="bold" text-decoration="none" x="1044.5146484375" y="347.5">playerTable[2]: PlayerTable</text></g></g><g transform="translate(-870,-126) scale(1,1)"><rect fill="#C0C0C0" stroke="none" x="895" y="415" width="472" height="80" opacity="0.2"/></g><g transform="translate(-870,-126) scale(1,1)"><rect fill="#ffffff" stroke="none" x="888" y="408" width="472" height="80"/></g><g transform="translate(-870,-126) scale(1,1)"><path fill="none" stroke="#000000" d="M 888 408 L 1360 408 L 1360 488 L 888 488 L 888 408 Z Z" stroke-miterlimit="10"/></g><g transform="translate(-870,-126) scale(1,1)"><rect fill="#ffffff" stroke="none" x="888" y="408" width="472" height="80"/></g><g transform="translate(-870,-126) scale(1,1)"><path fill="none" stroke="#000000" d="M 888 408 L 1360 408 L 1360 488 L 888 488 L 888 408 Z Z" stroke-miterlimit="10"/></g><g transform="translate(-870,-126) scale(1,1)"><g><path fill="none" stroke="none"/><text fill="#000000" stroke="none" font-family="Arial" font-size="13px" font-style="normal" font-weight="bold" text-decoration="none" x="1044.5146484375" y="427.5">playerTable[1]: PlayerTable</text></g></g><g transform="translate(-870,-126) scale(1,1)"><rect fill="#C0C0C0" stroke="none" x="895" y="495" width="472" height="80" opacity="0.2"/></g><g transform="translate(-870,-126) scale(1,1)"><rect fill="#ffffff" stroke="none" x="888" y="488" width="472" height="80"/></g><g transform="translate(-870,-126) scale(1,1)"><path fill="none" stroke="#000000" d="M 888 488 L 1360 488 L 1360 568 L 888 568 L 888 488 Z Z" stroke-miterlimit="10"/></g><g transform="translate(-870,-126) scale(1,1)"><rect fill="#ffffff" stroke="none" x="888" y="488" width="472" height="80"/></g><g transform="translate(-870,-126) scale(1,1)"><path fill="none" stroke="#000000" d="M 888 488 L 1360 488 L 1360 568 L 888 568 L 888 488 Z Z" stroke-miterlimit="10"/></g><g transform="translate(-870,-126) scale(1,1)"><g><path fill="none" stroke="none"/><text fill="#000000" stroke="none" font-family="Arial" font-size="13px" font-style="normal" font-weight="bold" text-decoration="none" x="1044.5146484375" y="507.5">playerTable[0]: PlayerTable</text></g></g><g transform="translate(-870,-126) scale(1,1)"><rect fill="#C0C0C0" stroke="none" x="895" y="575" width="472" height="104" opacity="0.2"/></g><g transform="translate(-870,-126) scale(1,1)"><rect fill="#ffffff" stroke="none" x="888" y="568" width="472" height="104"/></g><g transform="translate(-870,-126) scale(1,1)"><path fill="none" stroke="#000000" d="M 888 568 L 1360 568 L 1360 672 L 888 672 L 888 568 Z Z" stroke-miterlimit="10"/></g><g transform="translate(-870,-126) scale(1,1)"><rect fill="#ffffff" stroke="none" x="888" y="568" width="472" height="104"/></g><g transform="translate(-870,-126) scale(1,1)"><path fill="none" stroke="#000000" d="M 888 568 L 1360 568 L 1360 672 L 888 672 L 888 568 Z Z" stroke-miterlimit="10"/></g><g transform="translate(-870,-126) scale(1,1)"><g><path fill="none" stroke="none"/><text fill="#000000" stroke="none" font-family="Arial" font-size="13px" font-style="normal" font-weight="bold" text-decoration="none" x="1051.3701171875" y="587.5">handsTable: HandsTable</text></g></g><g transform="translate(-870,-126) scale(1,1)"><rect fill="#C0C0C0" stroke="none" x="1367" y="253" width="296" height="442" opacity="0.2"/></g><g transform="translate(-870,-126) scale(1,1)"><rect fill="#ffffff" stroke="none" x="1360" y="246" width="296" height="442"/></g><g transform="translate(-870,-126) scale(1,1)"><path fill="none" stroke="#000000" d="M 1360 246 L 1656 246 L 1656 688 L 1360 688 L 1360 246 Z Z" stroke-miterlimit="10"/></g><g transform="translate(-870,-126) scale(1,1)"><rect fill="#ffffff" stroke="none" x="1360" y="246" width="296" height="442"/></g><g transform="translate(-870,-126) scale(1,1)"><path fill="none" stroke="#000000" d="M 1360 246 L 1656 246 L 1656 688 L 1360 688 L 1360 246 Z Z" stroke-miterlimit="10"/></g><g transform="translate(-870,-126) scale(1,1)"><g><path fill="none" stroke="none"/><text fill="#000000" stroke="none" font-family="Arial" font-size="13px" font-style="normal" font-weight="bold" text-decoration="none" x="1442.24462890625" y="265.5">msgPane: JScrollPane</text></g></g></g></svg>