<svg version="1.1" xmlns="http://www.w3.org/2000/svg" xmlns:xlink="http://www.w3.org/1999/xlink" width="507" height="699"><defs/><g><g transform="translate(-30,-46) scale(1,1)"><rect fill="#ffffff" stroke="none" x="320" y="56" width="207" height="679"/></g><g transform="translate(-30,-46) scale(1,1)"><path fill="none" stroke="#000000" d="M 320 56 L 527 56 L 527 735 L 320 735 L 320 56 Z Z" stroke-miterlimit="10"/></g><g transform="translate(-30,-46) scale(1,1)"><path fill="#ffffff" stroke="none" d="M 202.84611789772728 225.68 C 202.84611789772728 220.886167936 206.73196022267274 217 211.525390625 217 C 216.31882102732726 217 220.20466335227272 220.886167936 220.20466335227272 225.68 C 220.20466335227272 230.47383206400002 216.31882102732726 234.36 211.525390625 234.36 C 206.73196022267274 234.36 202.84611789772728 230.47383206400002 202.84611789772728 225.68 Z"/></g><g transform="translate(-30,-46) scale(1,1)"><path fill="none" stroke="#000000" d="M 202.84611789772728 225.68 C 202.84611789772728 220.886167936 206.73196022267274 217 211.525390625 217 C 216.31882102732726 217 220.20466335227272 220.886167936 220.20466335227272 225.68 C 220.20466335227272 230.47383206400002 216.31882102732726 234.36 211.525390625 234.36 C 206.73196022267274 234.36 202.84611789772728 230.47383206400002 202.84611789772728 225.68 Z" stroke-miterlimit="10"/></g><g transform="translate(-30,-46) scale(1,1)"><path fill="none" stroke="#000000" d="M 211.525390625 234.36 L 211.525390625 251.64" stroke-miterlimit="10"/></g><g transform="translate(-30,-46) scale(1,1)"><path fill="none" stroke="#000000" d="M 202.33557244318183 240.84 L 220.71520880681817 240.84" stroke-miterlimit="10"/></g><g transform="translate(-30,-46) scale(1,1)"><path fill="none" stroke="#000000" d="M 211.525390625 251.64 L 198.76175426136365 269" stroke-miterlimit="10"/></g><g transform="translate(-30,-46) scale(1,1)"><path fill="none" stroke="#000000" d="M 211.525390625 251.64 L 224.28902698863635 269" stroke-miterlimit="10"/></g><g transform="translate(-30,-46) scale(1,1)"><g><path fill="none" stroke="none"/><text fill="#000000" stroke="none" font-family="Arial" font-size="13px" font-style="normal" font-weight="bold" text-decoration="none" x="175.40087890625" y="289.5">ActivePlayer</text></g></g><g transform="translate(-30,-46) scale(1,1)"><path fill="#ffffff" stroke="none" d="M 207.48112766335228 641.6800000000001 C 207.48112766335228 636.8861679360001 211.36696998829774 633 216.160400390625 633 C 220.95383079295226 633 224.83967311789772 636.8861679360001 224.83967311789772 641.6800000000001 C 224.83967311789772 646.473832064 220.95383079295226 650.36 216.160400390625 650.36 C 211.36696998829774 650.36 207.48112766335228 646.473832064 207.48112766335228 641.6800000000001 Z"/></g><g transform="translate(-30,-46) scale(1,1)"><path fill="none" stroke="#000000" d="M 207.48112766335228 641.6800000000001 C 207.48112766335228 636.8861679360001 211.36696998829774 633 216.160400390625 633 C 220.95383079295226 633 224.83967311789772 636.8861679360001 224.83967311789772 641.6800000000001 C 224.83967311789772 646.473832064 220.95383079295226 650.36 216.160400390625 650.36 C 211.36696998829774 650.36 207.48112766335228 646.473832064 207.48112766335228 641.6800000000001 Z" stroke-miterlimit="10"/></g><g transform="translate(-30,-46) scale(1,1)"><path fill="none" stroke="#000000" d="M 216.160400390625 650.36 L 216.160400390625 667.64" stroke-miterlimit="10"/></g><g transform="translate(-30,-46) scale(1,1)"><path fill="none" stroke="#000000" d="M 206.97058220880683 656.84 L 225.35021857244317 656.84" stroke-miterlimit="10"/></g><g transform="translate(-30,-46) scale(1,1)"><path fill="none" stroke="#000000" d="M 216.160400390625 667.64 L 203.39676402698865 685" stroke-miterlimit="10"/></g><g transform="translate(-30,-46) scale(1,1)"><path fill="none" stroke="#000000" d="M 216.160400390625 667.64 L 228.92403675426135 685" stroke-miterlimit="10"/></g><g transform="translate(-30,-46) scale(1,1)"><g><path fill="none" stroke="none"/><text fill="#000000" stroke="none" font-family="Arial" font-size="13px" font-style="normal" font-weight="bold" text-decoration="none" x="168.11181640625" y="705.5">NonActivePlayer</text></g></g><g transform="translate(-30,-46) scale(1,1)"><path fill="#C0C0C0" stroke="none" d="M 343 246.5 C 343 233.5213072 376.8024976 223 418.5 223 C 460.1975024 223 494 233.5213072 494 246.5 C 494 259.4786928 460.1975024 270 418.5 270 C 376.8024976 270 343 259.4786928 343 246.5 Z" opacity="0.2"/></g><g transform="translate(-30,-46) scale(1,1)"><path fill="#ffffff" stroke="none" d="M 336 239.5 C 336 226.5213072 369.8024976 216 411.5 216 C 453.1975024 216 487 226.5213072 487 239.5 C 487 252.4786928 453.1975024 263 411.5 263 C 369.8024976 263 336 252.4786928 336 239.5 Z"/></g><g transform="translate(-30,-46) scale(1,1)"><path fill="none" stroke="#000000" d="M 336 239.5 C 336 226.5213072 369.8024976 216 411.5 216 C 453.1975024 216 487 226.5213072 487 239.5 C 487 252.4786928 453.1975024 263 411.5 263 C 369.8024976 263 336 252.4786928 336 239.5 Z" stroke-miterlimit="10"/></g><g transform="translate(-30,-46) scale(1,1)"><g><path fill="none" stroke="none"/><text fill="#000000" stroke="none" font-family="Arial" font-size="13px" font-style="normal" font-weight="bold" text-decoration="none" x="376.095947265625" y="246.5">SelectCards</text></g></g><g transform="translate(-30,-46) scale(1,1)"><path fill="#C0C0C0" stroke="none" d="M 343 614.5 C 343 601.5213072 385.3090864 591 437.5 591 C 489.6909136 591 532 601.5213072 532 614.5 C 532 627.4786928 489.6909136 638 437.5 638 C 385.3090864 638 343 627.4786928 343 614.5 Z" opacity="0.2"/></g><g transform="translate(-30,-46) scale(1,1)"><path fill="#ffffff" stroke="none" d="M 336 607.5 C 336 594.5213072 378.3090864 584 430.5 584 C 482.6909136 584 525 594.5213072 525 607.5 C 525 620.4786928 482.6909136 631 430.5 631 C 378.3090864 631 336 620.4786928 336 607.5 Z"/></g><g transform="translate(-30,-46) scale(1,1)"><path fill="none" stroke="#000000" d="M 336 607.5 C 336 594.5213072 378.3090864 584 430.5 584 C 482.6909136 584 525 594.5213072 525 607.5 C 525 620.4786928 482.6909136 631 430.5 631 C 378.3090864 631 336 620.4786928 336 607.5 Z" stroke-miterlimit="10"/></g><g transform="translate(-30,-46) scale(1,1)"><g><path fill="none" stroke="none"/><text fill="#000000" stroke="none" font-family="Arial" font-size="13px" font-style="normal" font-weight="bold" text-decoration="none" x="370.885986328125" y="614.5">View HandsOnTable</text></g></g><g transform="translate(-30,-46) scale(1,1)"><path fill="#C0C0C0" stroke="none" d="M 351 150.5 C 351 137.5213072 386.5933584 127 430.5 127 C 474.4066416 127 510 137.5213072 510 150.5 C 510 163.4786928 474.4066416 174 430.5 174 C 386.5933584 174 351 163.4786928 351 150.5 Z" opacity="0.2"/></g><g transform="translate(-30,-46) scale(1,1)"><path fill="#ffffff" stroke="none" d="M 344 143.5 C 344 130.5213072 379.5933584 120 423.5 120 C 467.4066416 120 503 130.5213072 503 143.5 C 503 156.4786928 467.4066416 167 423.5 167 C 379.5933584 167 344 156.4786928 344 143.5 Z"/></g><g transform="translate(-30,-46) scale(1,1)"><path fill="none" stroke="#000000" d="M 344 143.5 C 344 130.5213072 379.5933584 120 423.5 120 C 467.4066416 120 503 130.5213072 503 143.5 C 503 156.4786928 467.4066416 167 423.5 167 C 379.5933584 167 344 156.4786928 344 143.5 Z" stroke-miterlimit="10"/></g><g transform="translate(-30,-46) scale(1,1)"><g><path fill="none" stroke="none"/><text fill="#000000" stroke="none" font-family="Arial" font-size="13px" font-style="normal" font-weight="bold" text-decoration="none" x="389.90185546875" y="150.5">ShowCards</text></g></g><g transform="translate(-30,-46) scale(1,1)"><path fill="#C0C0C0" stroke="none" d="M 351 366.5 C 351 353.5213072 386.5933584 343 430.5 343 C 474.4066416 343 510 353.5213072 510 366.5 C 510 379.4786928 474.4066416 390 430.5 390 C 386.5933584 390 351 379.4786928 351 366.5 Z" opacity="0.2"/></g><g transform="translate(-30,-46) scale(1,1)"><path fill="#ffffff" stroke="none" d="M 344 359.5 C 344 346.5213072 379.5933584 336 423.5 336 C 467.4066416 336 503 346.5213072 503 359.5 C 503 372.4786928 467.4066416 383 423.5 383 C 379.5933584 383 344 372.4786928 344 359.5 Z"/></g><g transform="translate(-30,-46) scale(1,1)"><path fill="none" stroke="#000000" d="M 344 359.5 C 344 346.5213072 379.5933584 336 423.5 336 C 467.4066416 336 503 346.5213072 503 359.5 C 503 372.4786928 467.4066416 383 423.5 383 C 379.5933584 383 344 372.4786928 344 359.5 Z" stroke-miterlimit="10"/></g><g transform="translate(-30,-46) scale(1,1)"><g><path fill="none" stroke="none"/><text fill="#000000" stroke="none" font-family="Arial" font-size="13px" font-style="normal" font-weight="bold" text-decoration="none" x="393.516845703125" y="366.5">PlayCards</text></g></g><g transform="translate(-30,-46) scale(1,1)"><path fill="#ffffff" stroke="none" d="M 88.21110813210227 449.68 C 88.21110813210227 444.886167936 92.09695045704773 441 96.890380859375 441 C 101.68381126170227 441 105.56965358664773 444.886167936 105.56965358664773 449.68 C 105.56965358664773 454.473832064 101.68381126170227 458.36 96.890380859375 458.36 C 92.09695045704773 458.36 88.21110813210227 454.473832064 88.21110813210227 449.68 Z"/></g><g transform="translate(-30,-46) scale(1,1)"><path fill="none" stroke="#000000" d="M 88.21110813210227 449.68 C 88.21110813210227 444.886167936 92.09695045704773 441 96.890380859375 441 C 101.68381126170227 441 105.56965358664773 444.886167936 105.56965358664773 449.68 C 105.56965358664773 454.473832064 101.68381126170227 458.36 96.890380859375 458.36 C 92.09695045704773 458.36 88.21110813210227 454.473832064 88.21110813210227 449.68 Z" stroke-miterlimit="10"/></g><g transform="translate(-30,-46) scale(1,1)"><path fill="none" stroke="#000000" d="M 96.890380859375 458.36 L 96.890380859375 475.64" stroke-miterlimit="10"/></g><g transform="translate(-30,-46) scale(1,1)"><path fill="none" stroke="#000000" d="M 87.70056267755682 464.84 L 106.08019904119318 464.84" stroke-miterlimit="10"/></g><g transform="translate(-30,-46) scale(1,1)"><path fill="none" stroke="#000000" d="M 96.890380859375 475.64 L 84.12674449573863 493" stroke-miterlimit="10"/></g><g transform="translate(-30,-46) scale(1,1)"><path fill="none" stroke="#000000" d="M 96.890380859375 475.64 L 109.65401722301137 493" stroke-miterlimit="10"/></g><g transform="translate(-30,-46) scale(1,1)"><g><path fill="none" stroke="none"/><text fill="#000000" stroke="none" font-family="Arial" font-size="13px" font-style="normal" font-weight="bold" text-decoration="none" x="46.67724609375" y="513.5">CardGamePlayer</text></g></g><g transform="translate(-30,-46) scale(1,1)"><path fill="none" stroke="#000000" d="M 190 296 L 117 439" stroke-miterlimit="10"/></g><g transform="translate(-30,-46) scale(1,1)"><path fill="#FFFFFF" stroke="none" d="M 118.74287908681174 417.0691456507332 L 117 439 L 133.73985744865382 424.72494579349177"/></g><g transform="translate(-30,-46) scale(1,1)"><path fill="none" stroke="#000000" d="M 118.74287908681174 417.0691456507332 L 117 439 L 133.73985744865382 424.72494579349177 L 118.74287908681174 417.0691456507332" stroke-miterlimit="10"/></g><g transform="translate(-30,-46) scale(1,1)"><path fill="none" stroke="#000000" d="M 191 631 L 122 520" stroke-miterlimit="10"/></g><g transform="translate(-30,-46) scale(1,1)"><path fill="#FFFFFF" stroke="none" d="M 139.8806089519466 532.8173251307583 L 122 520 L 125.58028232503443 541.7067173582982"/></g><g transform="translate(-30,-46) scale(1,1)"><path fill="none" stroke="#000000" d="M 139.8806089519466 532.8173251307583 L 122 520 L 125.58028232503443 541.7067173582982 L 139.8806089519466 532.8173251307583" stroke-miterlimit="10"/></g><g transform="translate(-30,-46) scale(1,1)"><path fill="none" stroke="#000000" d="M 256 231 L 376 168" stroke-miterlimit="10"/></g><g transform="translate(-30,-46) scale(1,1)"><path fill="none" stroke="#000000" d="M 256 251 L 335 245" stroke-miterlimit="10"/></g><g transform="translate(-30,-46) scale(1,1)"><path fill="none" stroke="#000000" d="M 421 335 L 414 264" stroke-miterlimit="10" stroke-dasharray="3"/></g><g transform="translate(-30,-46) scale(1,1)"><path fill="none" stroke="#000000" d="M 419.18632626550766 273.7006195610232 L 414 264 L 410.807912598476 274.52666034509673" stroke-miterlimit="10"/></g><g transform="translate(-30,-46) scale(1,1)"><path fill="none" stroke="#000000" d="M 237 296 L 415 583" stroke-miterlimit="10"/></g><g transform="translate(-30,-46) scale(1,1)"><path fill="none" stroke="#000000" d="M 346 632 L 273 654" stroke-miterlimit="10"/></g><g transform="translate(-30,-46) scale(1,1)"><g><path fill="none" stroke="none"/><text fill="#000000" stroke="none" font-family="Arial" font-size="13px" font-style="normal" font-weight="normal" text-decoration="none" x="333" y="98">BigTwoTable</text></g></g><g transform="translate(-30,-46) scale(1,1)"><path fill="#C0C0C0" stroke="none" d="M 359 480 C 359 470.6111584 387.4299152 463 422.5 463 C 457.5700848 463 486 470.6111584 486 480 C 486 489.3888416 457.5700848 497 422.5 497 C 387.4299152 497 359 489.3888416 359 480 Z" opacity="0.2"/></g><g transform="translate(-30,-46) scale(1,1)"><path fill="#ffffff" stroke="none" d="M 352 473 C 352 463.6111584 380.4299152 456 415.5 456 C 450.5700848 456 479 463.6111584 479 473 C 479 482.3888416 450.5700848 490 415.5 490 C 380.4299152 490 352 482.3888416 352 473 Z"/></g><g transform="translate(-30,-46) scale(1,1)"><path fill="none" stroke="#000000" d="M 352 473 C 352 463.6111584 380.4299152 456 415.5 456 C 450.5700848 456 479 463.6111584 479 473 C 479 482.3888416 450.5700848 490 415.5 490 C 380.4299152 490 352 482.3888416 352 473 Z" stroke-miterlimit="10"/></g><g transform="translate(-30,-46) scale(1,1)"><g><path fill="none" stroke="none"/><text fill="#000000" stroke="none" font-family="Arial" font-size="13px" font-style="normal" font-weight="bold" text-decoration="none" x="380.81640625" y="480">ShowProfile</text></g></g><g transform="translate(-30,-46) scale(1,1)"><path fill="none" stroke="#000000" d="M 249 296 L 398 455" stroke-miterlimit="10"/></g><g transform="translate(-30,-46) scale(1,1)"><path fill="none" stroke="#000000" d="M 256 631 L 397 491" stroke-miterlimit="10"/></g><g transform="translate(-30,-46) scale(1,1)"><path fill="none" stroke="#000000" d="M 411 216 L 411 196 L 516 196 L 516 239 L 487 239" stroke-miterlimit="10" stroke-dasharray="3"/></g><g transform="translate(-30,-46) scale(1,1)"><path fill="none" stroke="#000000" d="M 497.16267485762415 234.790482243984 L 487 239 L 497.16267485762415 243.209517756016" stroke-miterlimit="10"/></g></g></svg>